<svg version="1.1" id="svg5" xml:space="preserve" xmlns:xlink="http://www.w3.org/1999/xlink" xmlns="http://www.w3.org/2000/svg" xmlns:svg="http://www.w3.org/2000/svg" viewBox="0 0 4.23 4.23">
	<defs id="defs2">
		<linearGradient id="linearGradient983">
			<stop style="stop-color:#ff0016;stop-opacity:1;" offset="0" id="stop979">
			</stop>
			<stop style="stop-color:#ffe900;stop-opacity:1;" offset="1" id="stop981">
			</stop>
		</linearGradient>
		<linearGradient xlink:href="#linearGradient983" id="linearGradient985" x1="5.6900549" y1="0.17569731" x2="4.7578006" y2="52.740967" gradientUnits="userSpaceOnUse" gradientTransform="matrix(0.599973,0,0,0.55999946,-1.0582349,-0.84666187)">
		</linearGradient>
	</defs>
	<g id="layer4">
		<path id="rect6825" style="fill:url(#linearGradient985);fill-opacity:1;stroke:#000000;stroke-width:0;stroke-linecap:round;paint-order:fill markers stroke" d="m 2.0946093,0.26458706 c -0.061015,2.9135e-4 -0.1197024,0.0202871 -0.1680444,0.0665591 L 0.60639498,1.1949686 c -0.0572871,0.054834 -0.0826281,0.1285943 -0.0762722,0.2002562 l 0.00155,2.3553268 c 0.00747,0.052908 0.0322361,0.1040286 0.0747201,0.1446943 0.1031319,0.098714 0.24997656,0.07454 0.37329375,0 L 2.1132104,3.2099752 3.2470437,3.8946668 c 0.051483,0.04936 0.1190917,0.074083 0.1866467,0.074083 0.067654,0 0.1351853,-0.024544 0.1863368,-0.073504 0.0506,-0.048437 0.080571,-0.1163003 0.083711,-0.1823146 L 3.7021884,1.3897254 C 3.7117184,1.314452 3.6872054,1.2389213 3.6200243,1.1949675 L 2.2998589,0.33114618 C 2.2358931,0.28929457 2.1637605,0.26425682 2.0946093,0.26458706 Z">
		</path>
	</g>
</svg>
