<svg
   viewBox="0 0 10.556941 10.556941"
   xmlns:xlink="http://www.w3.org/1999/xlink"
   xmlns="http://www.w3.org/2000/svg"
   xmlns:svg="http://www.w3.org/2000/svg"><defs
     id="defs2"><linearGradient
       id="linearGradient983"><stop
         style="stop-color:#ff0016;stop-opacity:1;"
         offset="0"
         id="stop979" /><stop
         style="stop-color:#ffe900;stop-opacity:1;"
         offset="1"
         id="stop981" /></linearGradient><linearGradient
       xlink:href="#linearGradient983"
       id="linearGradient6860"
       gradientUnits="userSpaceOnUse"
       x1="5.6900549"
       y1="0.17569731"
       x2="4.7578006"
       y2="52.740967" /></defs><g
     id="layer2"
     transform="translate(-0.01319616,-10.59653)"><rect
       style="fill:none;stroke:none;stroke-width:0.0263923;stroke-linecap:round;stroke-dasharray:none;paint-order:fill markers stroke"
       id="rect6166-3"
       width="10.556941"
       height="10.556941"
       x="0.01319616"
       y="10.59653" /><path
       id="rect6823"
       style="fill:url(#linearGradient6860);fill-opacity:1;stroke:#000000;stroke-width:0;stroke-linecap:round;paint-order:fill markers stroke"
       d="m 5.2198364,12.568225 c -0.093826,0.0053 -0.1830896,0.04453 -0.2578654,0.126607 l -2.1879801,1.641244 c -0.170915,0.187608 -0.170915,0.491419 0,0.679028 0.170916,0.187609 0.4141957,0.141666 0.6185669,0 l 1.8789551,-1.302246 1.8784383,1.301213 c 0.08532,0.09381 0.197069,0.14056 0.309025,0.14056 0.1121211,0 0.2242522,-0.04648 0.3090251,-0.139527 0.170915,-0.187609 0.1995465,-0.529305 0,-0.679028 L 5.5805379,12.694832 C 5.468293,12.610614 5.34047,12.561444 5.2198364,12.568225 Z m 0.025321,1.342554 c -0.093826,0.0053 -0.1830897,0.04401 -0.2578654,0.12609 L 2.7993123,15.67863 c -0.170915,0.187608 -0.170915,0.49142 0,0.679028 0.170916,0.187608 0.4141958,0.141666 0.6185669,0 l 1.8789551,-1.302246 1.8784383,1.301212 c 0.08532,0.09381 0.197069,0.14056 0.3090251,0.14056 0.1121208,0 0.2242521,-0.04648 0.3090251,-0.139526 0.170915,-0.187608 0.1995465,-0.529305 0,-0.679028 L 5.6058594,14.036869 c -0.1122449,-0.08422 -0.240068,-0.132872 -0.360702,-0.12609 z m 0,1.342554 c -0.093826,0.0053 -0.1830897,0.04401 -0.2578654,0.12609 l -2.1879802,1.64176 c -0.170915,0.187609 -0.170915,0.49142 0,0.679029 0.170916,0.187607 0.4141958,0.141665 0.6185669,0 l 1.8789551,-1.302247 1.8784383,1.301213 c 0.08532,0.09381 0.197069,0.14056 0.3090251,0.14056 0.1121208,0 0.2242521,-0.04648 0.3090251,-0.139526 0.170915,-0.187609 0.1995465,-0.529305 0,-0.679029 L 5.6058589,15.379423 C 5.4936139,15.295203 5.365791,15.246551 5.2451574,15.253333 Z m 0.045475,1.342036 c -0.1083707,-0.0047 -0.2132318,0.0328 -0.2986897,0.126608 l -2.1879802,1.64176 c -0.170915,0.187608 -0.170915,0.49142 0,0.679028 0.1709159,0.187609 0.4147126,0.141666 0.6190837,0 l 1.8784383,-1.302246 1.8784383,1.301213 c 0.08532,0.09381 0.1975857,0.14056 0.3095418,0.14056 0.1121208,0 0.2242522,-0.04648 0.3090251,-0.139527 0.170915,-0.187608 0.1995465,-0.529304 0,-0.679028 L 5.6105103,16.721977 C 5.510737,16.647115 5.3990039,16.600105 5.2906324,16.595369 Z" /></g></svg>
