<svg version="1.1" id="svg5" xml:space="preserve" xmlns:xlink="http://www.w3.org/1999/xlink" xmlns="http://www.w3.org/2000/svg" xmlns:svg="http://www.w3.org/2000/svg" viewBox="0 0 4.23 4.23">
	<defs id="defs2">
		<linearGradient id="linearGradient13170">
			<stop style="stop-color:#ff450f;stop-opacity:1;" offset="0" id="stop13166">
			</stop>
			<stop style="stop-color:#ffe900;stop-opacity:1;" offset="1" id="stop13168">
			</stop>
		</linearGradient>
		<linearGradient xlink:href="#linearGradient13170" id="linearGradient1509" gradientUnits="userSpaceOnUse" gradientTransform="matrix(0.59998332,0,0,0.42189682,-1.0582723,-0.80431651)" x1="5.2705688" y1="12.703344" x2="5.2611837" y2="21.30254">
		</linearGradient>
	</defs>
	<g id="layer2" transform="translate(0,-4.2333331)">
		<path id="rect6823" style="fill:url(#linearGradient1509);fill-opacity:1;stroke:#000000;stroke-width:0;stroke-linecap:round;paint-order:fill markers stroke" d="m 2.0735426,4.498178 c -0.05629,0.00219 -0.10985,0.018791 -0.154715,0.053412 L 0.60607667,5.2440261 c -0.102546,0.079147 -0.102546,0.2073276 0,0.2864799 0.102547,0.079147 0.24851,0.059761 0.37112996,0 L 2.1045476,4.9810923 3.2315801,5.53007 c 0.05119,0.03958 0.118238,0.0593 0.18541,0.0593 0.06727,0 0.134546,-0.019611 0.18541,-0.058861 0.1025449,-0.079147 0.1197249,-0.2233124 0,-0.2864798 L 2.2899576,4.5515943 c -0.06735,-0.035528 -0.144036,-0.056272 -0.216415,-0.053412 z m 0.01519,0.8709008 c -0.05629,0.00227 -0.10985,0.018572 -0.154715,0.0532 L 0.62126667,6.114932 c -0.102546,0.079147 -0.102546,0.2073283 0,0.2864791 0.102546,0.079147 0.24851,0.059768 0.37112996,0 L 2.1197376,5.8519975 3.2467701,6.4009751 c 0.05119,0.03958 0.118238,0.0593 0.18541,0.0593 0.06727,0 0.134546,-0.019611 0.185409,-0.058861 0.1025459,-0.079147 0.1197259,-0.2233116 0,-0.2864798 L 2.3051506,5.4222756 c -0.06735,-0.035527 -0.144037,-0.05606 -0.216416,-0.0532 z m 0,0.8709074 c -0.05629,0.00219 -0.10985,0.018572 -0.154715,0.053192 L 0.62126567,6.9858325 c -0.102545,0.079148 -0.102545,0.2073283 0,0.2864791 0.102547,0.079148 0.248511,0.059761 0.37112996,0 L 2.1197376,6.722903 3.2467691,7.27188 c 0.05119,0.03958 0.118239,0.0593 0.18541,0.0593 0.06727,0 0.134547,-0.019611 0.18541,-0.058861 0.1025459,-0.079147 0.1197259,-0.2233116 0,-0.2864798 L 2.3051496,6.2931837 c -0.06735,-0.035528 -0.144036,-0.05606 -0.216415,-0.053192 z m 0.02728,0.8706865 c -0.06502,-0.00205 -0.127935,0.013832 -0.179208,0.053412 L 0.62405167,7.8567382 c -0.102545,0.079148 -0.102545,0.2073283 0,0.2864791 0.102547,0.079148 0.248821,0.059761 0.37143996,0 L 2.1225226,7.5938052 3.2495551,8.1427821 c 0.05119,0.03958 0.118548,0.0593 0.18572,0.0593 0.06727,0 0.134547,-0.019611 0.18541,-0.058861 0.1025449,-0.079148 0.1197249,-0.2233124 0,-0.2864798 L 2.3079406,7.1640897 c -0.05986,-0.031585 -0.1269,-0.051415 -0.191922,-0.053412 z">
		</path>
	</g>
</svg>
