<svg
   viewBox="0 0 10.556941 10.556941"
   xmlns:xlink="http://www.w3.org/1999/xlink"
   xmlns="http://www.w3.org/2000/svg"
   xmlns:svg="http://www.w3.org/2000/svg"><defs
     id="defs2"><linearGradient
       id="linearGradient983"><stop
         style="stop-color:#ff0016;stop-opacity:1;"
         offset="0"
         id="stop979" /><stop
         style="stop-color:#ffe900;stop-opacity:1;"
         offset="1"
         id="stop981" /></linearGradient><linearGradient
       xlink:href="#linearGradient983"
       id="linearGradient985"
       x1="5.6900549"
       y1="0.17569731"
       x2="4.7578006"
       y2="52.740967"
       gradientUnits="userSpaceOnUse" /></defs><g
     id="layer5"
     transform="translate(-0.01319616,-21.179861)"><rect
       style="fill:none;stroke:none;stroke-width:0.0263923;stroke-linecap:round;stroke-dasharray:none;paint-order:fill markers stroke"
       id="rect6166-3-3"
       width="10.556941"
       height="10.556941"
       x="0.01319616"
       y="21.179861" /><path
       id="rect6821"
       style="display:inline;fill:url(#linearGradient985);fill-opacity:1;stroke:#000000;stroke-width:0;stroke-linecap:round;paint-order:fill markers stroke"
       d="m 5.2224202,23.813017 c -0.093912,0.0052 -0.1835381,0.04366 -0.2583821,0.12454 l -2.1900472,1.617472 c -0.1710712,0.184871 -0.1710712,0.484337 0,0.66921 0.1710721,0.184872 0.4150425,0.1396 0.6196004,0 l 1.8805054,-1.283126 1.8799886,1.282093 c 0.085398,0.09243 0.1974835,0.138492 0.3095418,0.138492 0.1122235,0 0.2241742,-0.04577 0.3090251,-0.137459 0.1710711,-0.184873 0.1997288,-0.521671 0,-0.66921 L 5.5831217,23.937557 C 5.4707743,23.854566 5.343164,23.806334 5.2224202,23.813017 Z m 0.065629,1.370976 c -0.1084697,-0.0047 -0.2131537,0.0321 -0.2986898,0.12454 l -2.1900472,1.617472 c -0.1710712,0.184872 -0.1710712,0.484338 0,0.66921 0.1710722,0.184872 0.4150427,0.1396 0.6196005,0 l 1.8805053,-1.283126 1.8799886,1.282092 c 0.085398,0.09244 0.1974836,0.13901 0.3095419,0.13901 0.1122233,0 0.2246909,-0.04628 0.3095418,-0.137976 0.1710712,-0.184872 0.1997288,-0.52167 0,-0.66921 L 5.6084432,25.308533 c -0.099864,-0.07377 -0.2119242,-0.119874 -0.320394,-0.12454 z m 0,1.370975 c -0.1084697,-0.0047 -0.2131537,0.03262 -0.2986898,0.125057 l -2.1900472,1.617473 c -0.1710711,0.184871 -0.1710711,0.484338 0,0.669209 0.1710722,0.184873 0.4150427,0.1396 0.6196005,0 l 1.8805053,-1.283125 1.8799886,1.282092 c 0.085398,0.09243 0.1974835,0.138493 0.3095419,0.138493 0.1122232,0 0.2246909,-0.04576 0.3095418,-0.13746 0.1710712,-0.184871 0.1997288,-0.52167 0,-0.669209 L 5.6084432,26.680025 c -0.099864,-0.07377 -0.2119242,-0.12039 -0.320394,-0.125057 z" /></g></svg>
