<svg version="1.1" id="svg5" xml:space="preserve" xmlns:xlink="http://www.w3.org/1999/xlink" xmlns="http://www.w3.org/2000/svg" xmlns:svg="http://www.w3.org/2000/svg" viewBox="0 0 4.23 4.23">
	<defs id="defs2">
		<linearGradient id="linearGradient983">
			<stop style="stop-color:#ff0016;stop-opacity:1;" offset="0" id="stop979">
			</stop>
			<stop style="stop-color:#ffe900;stop-opacity:1;" offset="1" id="stop981">
			</stop>
		</linearGradient>
		<linearGradient xlink:href="#linearGradient983" id="linearGradient1519" gradientUnits="userSpaceOnUse" gradientTransform="matrix(-0.59995501,0,0,0.49177367,5.2914597,-2.7144784)" x1="5.6900549" y1="0.17569731" x2="4.7578006" y2="52.740967">
		</linearGradient>
	</defs>
	<g id="layer5" transform="translate(0,-8.4666662)">
		<path id="rect6821" style="display:inline;fill:url(#linearGradient1519);fill-opacity:1;stroke:#000000;stroke-width:0;stroke-linecap:round;paint-order:fill markers stroke" d="m 2.1582423,8.996136 c 0.056343,0.00256 0.1101136,0.021472 0.1550176,0.061244 l 1.3139295,0.7954308 c 0.1026351,0.090911 0.1026351,0.2381842 0,0.3291002 -0.1026351,0.09091 -0.2490067,0.06865 -0.3717321,0 L 2.1272387,9.5509035 0.99933009,10.181404 c -0.051237,0.04545 -0.118482,0.0681 -0.18571128,0.0681 -0.067329,0 -0.1344938,-0.02251 -0.1854011,-0.0676 -0.1026351,-0.09091 -0.119828,-0.2565436 0,-0.3291002 L 1.9418376,9.0573808 c 0.067403,-0.040812 0.143964,-0.064531 0.2164047,-0.061245 z m -0.039375,0.9603997 c 0.065077,-0.00238 0.1278827,0.015778 0.1792004,0.061252 l 1.3139302,0.795433 c 0.1026351,0.09091 0.1026351,0.238185 0,0.329101 -0.1026351,0.09091 -0.2490068,0.06865 -0.3717323,0 L 2.1120472,10.511315 0.98413839,11.141813 c -0.051235,0.04545 -0.11848198,0.06836 -0.18571118,0.06836 -0.06733,0 -0.134803,-0.02276 -0.185711,-0.06786 -0.1026351,-0.09091 -0.1198295,-0.256544 0,-0.329101 L 1.9266456,10.017781 C 1.9865596,9.981504 2.0537901,9.958825 2.1188679,9.956538 Z m 0,0.9606693 c 0.065077,-0.0024 0.1278827,0.01603 0.1792004,0.06151 l 1.3139296,0.795428 c 0.1026351,0.09091 0.1026351,0.238185 0,0.329098 -0.1026351,0.09091 -0.2490068,0.06865 -0.3717323,0 L 2.1120466,11.472232 0.98413779,12.10273 c -0.051235,0.04545 -0.11848198,0.0681 -0.18571118,0.0681 -0.06733,0 -0.134803,-0.02251 -0.185711,-0.0676 -0.1026351,-0.09091 -0.1198295,-0.256543 0,-0.329098 L 1.9266458,10.978703 c 0.059914,-0.03628 0.1271444,-0.0592 0.1922215,-0.06151 z">
		</path>
	</g>
</svg>
