<svg
   width="40"
   height="40"
   viewBox="0 0 10.556941 10.556941"
   xmlns:xlink="http://www.w3.org/1999/xlink"
   xmlns="http://www.w3.org/2000/svg"
   xmlns:svg="http://www.w3.org/2000/svg"><defs
     id="defs2"><linearGradient
       id="linearGradient983"><stop
         style="stop-color:#ff0016;stop-opacity:1;"
         offset="0"
         id="stop979" /><stop
         style="stop-color:#ffe900;stop-opacity:1;"
         offset="1"
         id="stop981" /></linearGradient><linearGradient
       xlink:href="#linearGradient983"
       id="linearGradient985"
       x1="5.6900549"
       y1="0.17569731"
       x2="4.7578006"
       y2="52.740967"
       gradientUnits="userSpaceOnUse" /></defs><g
     id="layer3"
     transform="translate(-0.01319615,-31.763197)"><rect
       style="fill:none;stroke:none;stroke-width:0.0263923;stroke-linecap:round;stroke-dasharray:none;paint-order:fill markers stroke"
       id="rect6166-3-3-3"
       width="10.556941"
       height="10.556941"
       x="0.01319615"
       y="31.763197" /><path
       id="rect6819"
       style="display:inline;fill:url(#linearGradient985);fill-opacity:1;stroke:#000000;stroke-width:0;stroke-linecap:round;paint-order:fill markers stroke"
       d="m 5.2549764,35.057292 c -0.1017007,5.16e-4 -0.1995096,0.03635 -0.2800863,0.118339 L 2.7745076,36.70577 c -0.1718958,0.174912 -0.1718958,0.458642 0,0.633553 0.171897,0.174913 0.4171572,0.132079 0.6227011,0 l 1.8892903,-1.214396 1.8892904,1.213362 c 0.08581,0.08745 0.1984936,0.131259 0.3110921,0.131259 0.1127642,0 0.2253155,-0.04347 0.3105754,-0.130225 0.1718958,-0.174911 0.2006916,-0.493962 0,-0.633553 L 5.5970744,35.175631 C 5.490457,35.101474 5.3702371,35.056707 5.2549764,35.057292 Z m 0,1.556494 c -0.1017007,5.16e-4 -0.1995096,0.03635 -0.2800863,0.118339 l -2.2003825,1.530656 c -0.1718958,0.174912 -0.1718958,0.458125 0,0.633036 0.1718972,0.174913 0.4171572,0.132079 0.6227011,0 l 1.8892903,-1.213879 1.8892904,1.212846 c 0.08581,0.08745 0.1984937,0.131258 0.3110921,0.131258 0.1127643,0 0.2253155,-0.04346 0.3105754,-0.130225 0.1718957,-0.174911 0.2006915,-0.493446 0,-0.633036 L 5.5970744,36.732125 C 5.490457,36.657968 5.3702372,36.613201 5.2549764,36.613786 Z" /></g></svg>
