<svg
   viewBox="0 0 10.556941 10.556941"
   xmlns:xlink="http://www.w3.org/1999/xlink"
   xmlns="http://www.w3.org/2000/svg"
   xmlns:svg="http://www.w3.org/2000/svg"><defs
     id="defs2"><linearGradient
       id="linearGradient1806"><stop
         style="stop-color:#2c593f;stop-opacity:1;"
         offset="0"
         id="stop1802" /><stop
         style="stop-color:#29456c;stop-opacity:1;"
         offset="0.50304878"
         id="stop1808" /><stop
         style="stop-color:#492f64;stop-opacity:1;"
         offset="1"
         id="stop1804" /></linearGradient><linearGradient
       xlink:href="#linearGradient1806"
       id="linearGradient7403"
       gradientUnits="userSpaceOnUse"
       gradientTransform="matrix(1,0,0,0.60000001,10.583333,10.583334)"
       x1="5.6900549"
       y1="0.17569731"
       x2="4.7578006"
       y2="52.740967" /></defs><g
     id="layer10"
     style="display:inline"
     transform="translate(-10.596529,-10.596529)"><rect
       style="display:inline;fill:none;stroke:none;stroke-width:0.0263923;stroke-linecap:round;stroke-dasharray:none;paint-order:fill markers stroke"
       id="rect6166-3-3-3-0-0"
       width="10.556941"
       height="10.556941"
       x="10.596529"
       y="10.596529" /><path
       id="rect378-5-08"
       style="display:inline;fill:url(#linearGradient7403);fill-opacity:1;stroke:#000000;stroke-width:0;stroke-linecap:round;paint-order:fill markers stroke"
       d="m 15.83831,13.890625 c -0.101701,5.16e-4 -0.19951,0.03635 -0.280087,0.118339 l -2.200382,1.530139 c -0.171896,0.174912 -0.171896,0.458642 0,0.633553 0.171897,0.174912 0.417157,0.132079 0.622701,0 l 1.88929,-1.214396 1.889291,1.213363 c 0.08581,0.08745 0.198493,0.131258 0.311092,0.131258 0.112764,0 0.225315,-0.04346 0.310575,-0.130225 0.171896,-0.174911 0.200692,-0.493961 0,-0.633553 L 16.180408,14.008964 C 16.07379,13.934806 15.95357,13.89004 15.83831,13.890625 Z m 0,1.556494 c -0.101701,5.16e-4 -0.19951,0.03635 -0.280087,0.118339 l -2.200382,1.530656 c -0.171896,0.174912 -0.171896,0.458127 0,0.633036 0.171897,0.174912 0.417157,0.132079 0.622701,0 l 1.88929,-1.213879 1.889291,1.212846 c 0.08581,0.08745 0.198494,0.131258 0.311092,0.131258 0.112765,0 0.225315,-0.04347 0.310575,-0.130225 0.171896,-0.174909 0.200692,-0.493446 0,-0.633036 L 16.180408,15.565458 C 16.07379,15.491301 15.95357,15.446534 15.83831,15.447119 Z" /></g></svg>
