<svg version="1.1" id="svg5" xml:space="preserve" xmlns="http://www.w3.org/2000/svg" xmlns:svg="http://www.w3.org/2000/svg" viewBox="0 0 4.23 4.23">
	<defs id="defs2">
	</defs>
	<g id="layer10" style="display:inline" transform="translate(-4.2333331,-4.2333331)">
		<path style="display:inline;fill:#2c593f;fill-opacity:1;stroke:#000000;stroke-width:0;stroke-linecap:round;paint-order:fill markers stroke" d="m 6.3280957,6.221419 c -0.06101,3.105e-4 -0.119702,0.021875 -0.168047,0.071207 l -1.320197,0.9210218 c -0.103135,0.1052472 -0.103135,0.2756631 0,0.3809094 0.103136,0.1052472 0.250288,0.079474 0.373611,0 l 1.133545,-0.7304121 1.133547,0.7297908 c 0.05149,0.052617 0.119087,0.07898 0.186651,0.07898 0.06766,0 0.135188,-0.026159 0.18634,-0.078359 0.103136,-0.1052471 0.120407,-0.2969155 0,-0.3809095 L 6.5333497,6.2926259 c -0.06397,-0.044621 -0.136104,-0.071559 -0.205254,-0.071207 z" id="path17024">
		</path>
		<path style="display:inline;fill:#63b182;fill-opacity:1;stroke:#000000;stroke-width:0;stroke-linecap:round;paint-order:fill markers stroke" d="m 6.3280957,5.0270872 c -0.061014,3.106e-4 -0.119702,0.021875 -0.168047,0.071207 l -1.320197,0.920711 c -0.103135,0.1052472 -0.103135,0.275973 0,0.3812199 0.103136,0.1052487 0.250288,0.079474 0.373611,0 l 1.133545,-0.7307235 1.133547,0.730102 c 0.05149,0.052617 0.119087,0.07898 0.186651,0.07898 0.06766,0 0.135188,-0.026151 0.18634,-0.078359 0.103136,-0.1052471 0.120407,-0.2972246 0,-0.3812199 L 6.5333497,5.0982935 c -0.06397,-0.044621 -0.136104,-0.071558 -0.205254,-0.071206 z" id="rect378-5-08">
		</path>
	</g>
</svg>
