<?xml version="1.0" encoding="UTF-8" standalone="no"?>
<!-- Created with Inkscape (http://www.inkscape.org/) -->

<svg
   width="48"
   height="80"
   viewBox="0 0 12.7 21.166666"
   version="1.1"
   id="svg5"
   xml:space="preserve"
   sodipodi:docname="all.svg"
   inkscape:version="1.2.2 (b0a84865, 2022-12-01)"
   xmlns:inkscape="http://www.inkscape.org/namespaces/inkscape"
   xmlns:sodipodi="http://sodipodi.sourceforge.net/DTD/sodipodi-0.dtd"
   xmlns:xlink="http://www.w3.org/1999/xlink"
   xmlns="http://www.w3.org/2000/svg"
   xmlns:svg="http://www.w3.org/2000/svg"><sodipodi:namedview
     id="namedview7"
     pagecolor="#ffffff"
     bordercolor="#666666"
     borderopacity="1.0"
     inkscape:showpageshadow="2"
     inkscape:pageopacity="0.0"
     inkscape:pagecheckerboard="0"
     inkscape:deskcolor="#d1d1d1"
     inkscape:document-units="mm"
     showgrid="false"
     inkscape:zoom="6.2705581"
     inkscape:cx="21.130495"
     inkscape:cy="50.952402"
     inkscape:window-width="864"
     inkscape:window-height="1019"
     inkscape:window-x="0"
     inkscape:window-y="38"
     inkscape:window-maximized="0"
     inkscape:current-layer="layer1" /><defs
     id="defs2"><linearGradient
       inkscape:collect="always"
       id="linearGradient16270"><stop
         style="stop-color:#ffa406;stop-opacity:1;"
         offset="0"
         id="stop16266" /><stop
         style="stop-color:#ffe900;stop-opacity:1;"
         offset="1"
         id="stop16268" /></linearGradient><linearGradient
       inkscape:collect="always"
       id="linearGradient16264"><stop
         style="stop-color:#ff6801;stop-opacity:1;"
         offset="0"
         id="stop16260" /><stop
         style="stop-color:#ffe900;stop-opacity:1;"
         offset="1"
         id="stop16262" /></linearGradient><linearGradient
       inkscape:collect="always"
       id="linearGradient13170"><stop
         style="stop-color:#ff450f;stop-opacity:1;"
         offset="0"
         id="stop13166" /><stop
         style="stop-color:#ffe900;stop-opacity:1;"
         offset="1"
         id="stop13168" /></linearGradient><linearGradient
       inkscape:collect="always"
       id="linearGradient1806"><stop
         style="stop-color:#2c593f;stop-opacity:1;"
         offset="0"
         id="stop1802" /><stop
         style="stop-color:#29456c;stop-opacity:1;"
         offset="0.50304878"
         id="stop1808" /><stop
         style="stop-color:#492f64;stop-opacity:1;"
         offset="1"
         id="stop1804" /></linearGradient><linearGradient
       inkscape:collect="always"
       id="linearGradient983"><stop
         style="stop-color:#ff0016;stop-opacity:1;"
         offset="0"
         id="stop979" /><stop
         style="stop-color:#ffe900;stop-opacity:1;"
         offset="1"
         id="stop981" /></linearGradient><linearGradient
       inkscape:collect="always"
       xlink:href="#linearGradient983"
       id="linearGradient985"
       x1="5.2705617"
       y1="1.9285017"
       x2="5.219243"
       y2="8.6062517"
       gradientUnits="userSpaceOnUse"
       gradientTransform="matrix(0.599973,0,0,0.55999946,-1.0582349,-0.84666187)" /><inkscape:path-effect
       effect="fill_between_many"
       method="originald"
       linkedpaths="#g6391-3,0,1"
       id="path-effect6464"
       is_visible="true"
       lpeversion="0"
       join="true"
       close="true"
       autoreverse="true" /><linearGradient
       inkscape:collect="always"
       xlink:href="#linearGradient983"
       id="linearGradient7104"
       gradientUnits="userSpaceOnUse"
       x1="5.6900549"
       y1="0.17569731"
       x2="4.7578006"
       y2="52.740967"
       gradientTransform="translate(0,0.06962382)" /><linearGradient
       inkscape:collect="always"
       xlink:href="#linearGradient1806"
       id="linearGradient7456"
       gradientUnits="userSpaceOnUse"
       gradientTransform="matrix(1,0,0,0.60000001,10.583333,10.583334)"
       x1="5.6900549"
       y1="0.17569731"
       x2="4.7578006"
       y2="52.740967" /><linearGradient
       inkscape:collect="always"
       xlink:href="#linearGradient983"
       id="linearGradient1390"
       gradientUnits="userSpaceOnUse"
       x1="5.6900549"
       y1="0.17569731"
       x2="4.7578006"
       y2="52.740967"
       gradientTransform="matrix(0.59998505,0,0,0.59999401,-1.0581457,-9.5247108)" /><linearGradient
       inkscape:collect="always"
       xlink:href="#linearGradient13170"
       id="linearGradient1509"
       gradientUnits="userSpaceOnUse"
       gradientTransform="matrix(0.59998332,0,0,0.42189682,-1.0582723,-0.80431651)"
       x1="5.2705688"
       y1="12.703344"
       x2="5.2611837"
       y2="21.30254" /><linearGradient
       inkscape:collect="always"
       xlink:href="#linearGradient16264"
       id="linearGradient1519"
       gradientUnits="userSpaceOnUse"
       gradientTransform="matrix(-0.59995501,0,0,0.49177367,5.2914597,-2.7144784)"
       x1="5.1977482"
       y1="23.599298"
       x2="5.3907661"
       y2="30.175373" /><linearGradient
       inkscape:collect="always"
       xlink:href="#linearGradient16270"
       id="linearGradient1525"
       gradientUnits="userSpaceOnUse"
       gradientTransform="matrix(0.59998505,0,0,0.62814113,-1.0581456,-8.5271697)"
       x1="5.197773"
       y1="35.03883"
       x2="5.2500825"
       y2="39.239059" /></defs><g
     inkscape:groupmode="layer"
     id="layer7"
     inkscape:label="backup"
     style="display:none"><rect
       style="display:inline;fill:url(#linearGradient7104);fill-opacity:1;stroke:#000000;stroke-width:0;stroke-linecap:round;paint-order:fill markers stroke"
       id="rect378-1"
       width="10.583332"
       height="52.916664"
       x="5e-07"
       y="0.06962353"
       inkscape:label="background" /><rect
       style="display:inline;fill:url(#linearGradient7456);fill-opacity:1;stroke:#000000;stroke-width:0;stroke-linecap:round;paint-order:fill markers stroke"
       id="rect378-5-08-7"
       width="10.583332"
       height="31.75"
       x="10.583334"
       y="10.583334" /></g><g
     inkscape:label="9-deferred"
     inkscape:groupmode="layer"
     id="layer1"
     style="display:inline"><rect
       style="display:inline;fill:none;stroke:none;stroke-width:0.0105833;stroke-linecap:round;stroke-dasharray:none;paint-order:fill markers stroke"
       id="rect6166-3-3-3-0-2-9"
       width="4.2333331"
       height="4.2333331"
       x="8.4666662"
       y="8.4666662"
       inkscape:label="box" /><ellipse
       style="display:inline;fill:none;stroke:#a8a8a8;stroke-width:0.603251;stroke-linecap:butt;stroke-linejoin:bevel;stroke-dasharray:none;paint-order:normal;fill-opacity:1;stroke-opacity:1"
       id="path7592"
       cx="10.583333"
       cy="10.583333"
       rx="1.2858741"
       ry="1.2858744" /></g><g
     inkscape:groupmode="layer"
     id="layer8"
     inkscape:label="8-feature-low"
     style="display:inline"><rect
       style="display:inline;fill:none;stroke:none;stroke-width:0.0105833;stroke-linecap:round;stroke-dasharray:none;paint-order:fill markers stroke"
       id="rect6166-3-3-3-0-2"
       width="4.2333331"
       height="4.2333331"
       x="4.2333331"
       y="12.7"
       inkscape:label="box" /><path
       style="display:inline;fill:#926cb9;fill-opacity:1;stroke:#000000;stroke-width:0;stroke-linecap:round;paint-order:fill markers stroke"
       d="m 5.0327935,14.688089 c -0.06766,0 -0.135188,0.02617 -0.18634,0.07836 -0.103135,0.105252 -0.120407,0.297229 0,0.381223 l 1.320196,0.920718 c 0.120407,0.08399 0.270166,0.105252 0.373303,0 l 1.320196,-0.920718 c 0.103135,-0.105253 0.103135,-0.275974 0,-0.381223 -0.103136,-0.105252 -0.250289,-0.07948 -0.373612,0 l -1.133545,0.730723 -1.133547,-0.730106 c -0.05148,-0.05262 -0.119087,-0.07898 -0.186651,-0.07898 z"
       id="path17028" /><path
       style="display:inline;fill:#492f64;fill-opacity:1;stroke:#000000;stroke-width:0;stroke-linecap:round;paint-order:fill markers stroke"
       d="m 5.0327935,13.493751 c -0.06766,0 -0.135188,0.02615 -0.18634,0.07836 -0.103135,0.105253 -0.120407,0.296917 0,0.380913 l 1.320196,0.921027 c 0.120407,0.08399 0.270166,0.105252 0.373303,0 l 1.320196,-0.921027 c 0.103135,-0.105252 0.103135,-0.275665 0,-0.380913 -0.103136,-0.105252 -0.250289,-0.07948 -0.373612,0 l -1.133545,0.730414 -1.133547,-0.729795 c -0.051485,-0.05262 -0.119087,-0.07898 -0.186651,-0.07898 z"
       id="rect378-5-08-7-3" /></g><g
     inkscape:groupmode="layer"
     id="layer9"
     inkscape:label="7-feature-medium"
     style="display:inline"><rect
       style="display:inline;fill:none;stroke:none;stroke-width:0.0105833;stroke-linecap:round;stroke-dasharray:none;paint-order:fill markers stroke"
       id="rect6166-3-3-3-0-9"
       width="4.2333331"
       height="4.2333331"
       x="4.2333331"
       y="8.4666662"
       inkscape:label="box" /><path
       id="rect378-5-08-7-3-0"
       style="display:inline;fill:#3e69a4;fill-opacity:1;stroke:#000000;stroke-width:0;stroke-linecap:round;paint-order:fill markers stroke"
       d="m 5.0068285,9.7089031 c -0.135006,0 -0.244328,0.1486738 -0.244328,0.3233629 0,0.174693 0.109301,0.33301 0.244328,0.33301 h 2.686345 c 0.135005,0 0.244326,-0.149051 0.244326,-0.33301 0,-0.1839571 -0.109301,-0.3233629 -0.244326,-0.3233629 z m -1.1e-5,1.1953999 c -0.135005,0 -0.244317,0.148975 -0.244317,0.323672 0,0.174694 0.109301,0.33301 0.244317,0.33301 h 2.686236 c 0.135005,0 0.244315,-0.14905 0.244315,-0.33301 0,-0.183952 -0.109226,-0.323672 -0.244315,-0.323672 z" /></g><g
     inkscape:groupmode="layer"
     id="layer10"
     inkscape:label="6-feature-high"
     style="display:inline"><rect
       style="display:inline;fill:none;stroke:none;stroke-width:0.0105833;stroke-linecap:round;stroke-dasharray:none;paint-order:fill markers stroke"
       id="rect6166-3-3-3-0-0"
       width="4.2333331"
       height="4.2333331"
       x="4.2333331"
       y="4.2333331"
       inkscape:label="box" /><path
       style="display:inline;fill:#2c593f;fill-opacity:1;stroke:#000000;stroke-width:0;stroke-linecap:round;paint-order:fill markers stroke"
       d="m 6.3280957,6.221419 c -0.06101,3.105e-4 -0.119702,0.021875 -0.168047,0.071207 l -1.320197,0.9210218 c -0.103135,0.1052472 -0.103135,0.2756631 0,0.3809094 0.103136,0.1052472 0.250288,0.079474 0.373611,0 l 1.133545,-0.7304121 1.133547,0.7297908 c 0.05149,0.052617 0.119087,0.07898 0.186651,0.07898 0.06766,0 0.135188,-0.026159 0.18634,-0.078359 0.103136,-0.1052471 0.120407,-0.2969155 0,-0.3809095 L 6.5333497,6.2926259 c -0.06397,-0.044621 -0.136104,-0.071559 -0.205254,-0.071207 z"
       id="path17024" /><path
       style="display:inline;fill:#63b182;fill-opacity:1;stroke:#000000;stroke-width:0;stroke-linecap:round;paint-order:fill markers stroke"
       d="m 6.3280957,5.0270872 c -0.061014,3.106e-4 -0.119702,0.021875 -0.168047,0.071207 l -1.320197,0.920711 c -0.103135,0.1052472 -0.103135,0.275973 0,0.3812199 0.103136,0.1052487 0.250288,0.079474 0.373611,0 l 1.133545,-0.7307235 1.133547,0.730102 c 0.05149,0.052617 0.119087,0.07898 0.186651,0.07898 0.06766,0 0.135188,-0.026151 0.18634,-0.078359 0.103136,-0.1052471 0.120407,-0.2972246 0,-0.3812199 L 6.5333497,5.0982935 c -0.06397,-0.044621 -0.136104,-0.071558 -0.205254,-0.071206 z"
       id="rect378-5-08" /></g><g
     inkscape:groupmode="layer"
     id="layer6"
     inkscape:label="5-issue-low"><rect
       style="display:inline;fill:none;stroke:none;stroke-width:0.0105833;stroke-linecap:round;stroke-dasharray:none;paint-order:fill markers stroke"
       id="rect6166-3-3-3-0"
       width="4.2333331"
       height="4.2333331"
       x="0"
       y="16.933332"
       inkscape:label="box" /><path
       id="rect378"
       style="display:inline;fill:url(#linearGradient1390);fill-opacity:1;stroke:#000000;stroke-width:0;stroke-linecap:round;paint-order:fill markers stroke"
       inkscape:label="background"
       d="m 2.0947617,18.256261 c -0.061021,3.39e-4 -0.1197034,0.02387 -0.1680479,0.07783 l -1.32019628,1.00737 c -0.1031339,0.115123 -0.1031339,0.301597 0,0.416715 0.1031354,0.115123 0.2502882,0.08693 0.3736113,0 l 1.13354588,-0.799325 1.133546,0.798703 c 0.051485,0.05755 0.1190927,0.0862 0.1866505,0.0862 0.067657,0 0.1351864,-0.02848 0.1863406,-0.08558 0.1031338,-0.115122 0.1204116,-0.324842 0,-0.416715 L 2.3000154,18.334084 c -0.063969,-0.0488 -0.1360988,-0.07822 -0.2052537,-0.07783 z" /></g><g
     inkscape:groupmode="layer"
     id="layer3"
     inkscape:label="4-issue-high"><rect
       style="fill:none;stroke:none;stroke-width:0.0105833;stroke-linecap:round;stroke-dasharray:none;paint-order:fill markers stroke"
       id="rect6166-3-3-3"
       width="4.2333331"
       height="4.2333331"
       x="0"
       y="12.7"
       inkscape:label="box" /><path
       id="rect6819"
       style="display:inline;fill:url(#linearGradient1525);fill-opacity:1;stroke:#000000;stroke-width:0;stroke-linecap:round;paint-order:fill markers stroke"
       d="m 2.0947616,13.493753 c -0.06102,3.25e-4 -0.1197033,0.02284 -0.1680477,0.07433 l -1.32019638,0.961143 c -0.1031339,0.109874 -0.1031339,0.288092 0,0.397961 0.1031355,0.109873 0.2502882,0.08296 0.3736113,0 l 1.13354578,-0.76281 1.1335462,0.76216 c 0.051486,0.05493 0.1190925,0.08245 0.1866504,0.08245 0.067657,0 0.1351864,-0.02731 0.1863407,-0.08181 0.1031338,-0.109874 0.1204116,-0.310278 0,-0.397961 L 2.3000154,13.568087 c -0.063969,-0.04656 -0.1360988,-0.07471 -0.2052538,-0.07433 z m 0,1.130588 c -0.06102,3.25e-4 -0.1197033,0.02284 -0.1680477,0.07433 l -1.32019638,0.961471 c -0.1031339,0.109873 -0.1031339,0.287765 0,0.397634 0.1031355,0.109874 0.2502882,0.08296 0.3736113,0 l 1.13354578,-0.762487 1.1335462,0.76184 c 0.051486,0.05493 0.1190925,0.08245 0.1866504,0.08245 0.067657,0 0.1351864,-0.0273 0.1863407,-0.08181 0.1031338,-0.109874 0.1204116,-0.309957 0,-0.397636 L 2.3000154,14.698665 c -0.063969,-0.04656 -0.1360988,-0.07471 -0.2052538,-0.07433 z" /></g><g
     inkscape:groupmode="layer"
     id="layer5"
     inkscape:label="3-issue-urgent"><rect
       style="fill:none;stroke:none;stroke-width:0.0105833;stroke-linecap:round;stroke-dasharray:none;paint-order:fill markers stroke"
       id="rect6166-3-3"
       width="4.2333331"
       height="4.2333331"
       x="0"
       y="8.4666662"
       inkscape:label="box" /><path
       id="rect6821"
       style="display:inline;fill:url(#linearGradient1519);fill-opacity:1;stroke:#000000;stroke-width:0;stroke-linecap:round;paint-order:fill markers stroke"
       d="m 2.1582423,8.996136 c 0.056343,0.00256 0.1101136,0.021472 0.1550176,0.061244 l 1.3139295,0.7954308 c 0.1026351,0.090911 0.1026351,0.2381842 0,0.3291002 -0.1026351,0.09091 -0.2490067,0.06865 -0.3717321,0 L 2.1272387,9.5509035 0.99933009,10.181404 c -0.051237,0.04545 -0.118482,0.0681 -0.18571128,0.0681 -0.067329,0 -0.1344938,-0.02251 -0.1854011,-0.0676 -0.1026351,-0.09091 -0.119828,-0.2565436 0,-0.3291002 L 1.9418376,9.0573808 c 0.067403,-0.040812 0.143964,-0.064531 0.2164047,-0.061245 z m -0.039375,0.9603997 c 0.065077,-0.00238 0.1278827,0.015778 0.1792004,0.061252 l 1.3139302,0.795433 c 0.1026351,0.09091 0.1026351,0.238185 0,0.329101 -0.1026351,0.09091 -0.2490068,0.06865 -0.3717323,0 L 2.1120472,10.511315 0.98413839,11.141813 c -0.051235,0.04545 -0.11848198,0.06836 -0.18571118,0.06836 -0.06733,0 -0.134803,-0.02276 -0.185711,-0.06786 -0.1026351,-0.09091 -0.1198295,-0.256544 0,-0.329101 L 1.9266456,10.017781 c 0.059914,-0.036277 0.1271445,-0.058956 0.1922223,-0.061243 z m 0,0.9606693 c 0.065077,-0.0024 0.1278827,0.01603 0.1792004,0.06151 l 1.3139296,0.795428 c 0.1026351,0.09091 0.1026351,0.238185 0,0.329098 -0.1026351,0.09091 -0.2490068,0.06865 -0.3717323,0 L 2.1120466,11.472232 0.98413779,12.10273 c -0.051235,0.04545 -0.11848198,0.0681 -0.18571118,0.0681 -0.06733,0 -0.134803,-0.02251 -0.185711,-0.0676 -0.1026351,-0.09091 -0.1198295,-0.256543 0,-0.329098 L 1.9266458,10.978703 c 0.059914,-0.03628 0.1271444,-0.0592 0.1922215,-0.06151 z" /></g><g
     inkscape:groupmode="layer"
     id="layer2"
     inkscape:label="2-issue-critical"><rect
       style="fill:none;stroke:none;stroke-width:0.0105833;stroke-linecap:round;stroke-dasharray:none;paint-order:fill markers stroke"
       id="rect6166-3"
       width="4.2333331"
       height="4.2333331"
       x="0"
       y="4.2333331"
       inkscape:label="box" /><path
       id="rect6823"
       style="fill:url(#linearGradient1509);fill-opacity:1;stroke:#000000;stroke-width:0;stroke-linecap:round;paint-order:fill markers stroke"
       d="m 2.0735426,4.498178 c -0.05629,0.00219 -0.10985,0.018791 -0.154715,0.053412 L 0.60607667,5.2440261 c -0.102546,0.079147 -0.102546,0.2073276 0,0.2864799 0.102547,0.079147 0.24851,0.059761 0.37112996,0 L 2.1045476,4.9810923 3.2315801,5.53007 c 0.05119,0.03958 0.118238,0.0593 0.18541,0.0593 0.06727,0 0.134546,-0.019611 0.18541,-0.058861 0.1025449,-0.079147 0.1197249,-0.2233124 0,-0.2864798 L 2.2899576,4.5515943 c -0.06735,-0.035528 -0.144036,-0.056272 -0.216415,-0.053412 z m 0.01519,0.8709008 c -0.05629,0.00227 -0.10985,0.018572 -0.154715,0.0532 L 0.62126667,6.114932 c -0.102546,0.079147 -0.102546,0.2073283 0,0.2864791 0.102546,0.079147 0.24851,0.059768 0.37112996,0 L 2.1197376,5.8519975 3.2467701,6.4009751 c 0.05119,0.03958 0.118238,0.0593 0.18541,0.0593 0.06727,0 0.134546,-0.019611 0.185409,-0.058861 0.1025459,-0.079147 0.1197259,-0.2233116 0,-0.2864798 L 2.3051506,5.4222756 c -0.06735,-0.035527 -0.144037,-0.05606 -0.216416,-0.0532 z m 0,0.8709074 c -0.05629,0.00219 -0.10985,0.018572 -0.154715,0.053192 L 0.62126567,6.9858325 c -0.102545,0.079148 -0.102545,0.2073283 0,0.2864791 0.102547,0.079148 0.248511,0.059761 0.37112996,0 L 2.1197376,6.722903 3.2467691,7.27188 c 0.05119,0.03958 0.118239,0.0593 0.18541,0.0593 0.06727,0 0.134547,-0.019611 0.18541,-0.058861 0.1025459,-0.079147 0.1197259,-0.2233116 0,-0.2864798 L 2.3051496,6.2931837 c -0.06735,-0.035528 -0.144036,-0.05606 -0.216415,-0.053192 z m 0.02728,0.8706865 c -0.06502,-0.00205 -0.127935,0.013832 -0.179208,0.053412 L 0.62405167,7.8567382 c -0.102545,0.079148 -0.102545,0.2073283 0,0.2864791 0.102547,0.079148 0.248821,0.059761 0.37143996,0 L 2.1225226,7.5938052 3.2495551,8.1427821 c 0.05119,0.03958 0.118548,0.0593 0.18572,0.0593 0.06727,0 0.134547,-0.019611 0.18541,-0.058861 0.1025449,-0.079148 0.1197249,-0.2233124 0,-0.2864798 L 2.3079406,7.1640897 c -0.05986,-0.031585 -0.1269,-0.051415 -0.191922,-0.053412 z" /></g><g
     inkscape:groupmode="layer"
     id="layer4"
     inkscape:label="1-issue-emergency"><rect
       style="fill:none;stroke:none;stroke-width:0.0105833;stroke-linecap:round;stroke-dasharray:none;paint-order:fill markers stroke"
       id="rect6166"
       width="4.2333331"
       height="4.2333331"
       x="-8.6736174e-19"
       y="-8.6736174e-19"
       inkscape:label="box" /><path
       id="rect6825"
       style="fill:url(#linearGradient985);fill-opacity:1;stroke:#000000;stroke-width:0;stroke-linecap:round;paint-order:fill markers stroke"
       inkscape:label="background"
       d="m 2.0946093,0.26458706 c -0.061015,2.9135e-4 -0.1197024,0.0202871 -0.1680444,0.0665591 L 0.60639498,1.1949686 c -0.0572871,0.054834 -0.0826281,0.1285943 -0.0762722,0.2002562 l 0.00155,2.3553268 c 0.00747,0.052908 0.0322361,0.1040286 0.0747201,0.1446943 0.1031319,0.098714 0.24997656,0.07454 0.37329375,0 L 2.1132104,3.2099752 3.2470437,3.8946668 c 0.051483,0.04936 0.1190917,0.074083 0.1866467,0.074083 0.067654,0 0.1351853,-0.024544 0.1863368,-0.073504 0.0506,-0.048437 0.080571,-0.1163003 0.083711,-0.1823146 L 3.7021884,1.3897254 C 3.7117184,1.314452 3.6872054,1.2389213 3.6200243,1.1949675 L 2.2998589,0.33114618 C 2.2358931,0.28929457 2.1637605,0.26425682 2.0946093,0.26458706 Z" /></g></svg>
