<?xml version="1.0" encoding="UTF-8" standalone="no"?>
<!-- Created with Inkscape (http://www.inkscape.org/) -->

<svg
   width="120"
   height="200"
   viewBox="0 0 31.749999 52.916666"
   version="1.1"
   id="svg5"
   xml:space="preserve"
   sodipodi:docname="all.svg"
   inkscape:version="1.2.2 (b0a84865, 2022-12-01)"
   xmlns:inkscape="http://www.inkscape.org/namespaces/inkscape"
   xmlns:sodipodi="http://sodipodi.sourceforge.net/DTD/sodipodi-0.dtd"
   xmlns:xlink="http://www.w3.org/1999/xlink"
   xmlns="http://www.w3.org/2000/svg"
   xmlns:svg="http://www.w3.org/2000/svg"><sodipodi:namedview
     id="namedview7"
     pagecolor="#ffffff"
     bordercolor="#666666"
     borderopacity="1.0"
     inkscape:showpageshadow="2"
     inkscape:pageopacity="0.0"
     inkscape:pagecheckerboard="0"
     inkscape:deskcolor="#d1d1d1"
     inkscape:document-units="mm"
     showgrid="false"
     inkscape:zoom="2.345672"
     inkscape:cx="1.2789512"
     inkscape:cy="152.40835"
     inkscape:window-width="1390"
     inkscape:window-height="1019"
     inkscape:window-x="0"
     inkscape:window-y="38"
     inkscape:window-maximized="0"
     inkscape:current-layer="layer1" /><defs
     id="defs2"><linearGradient
       inkscape:collect="always"
       id="linearGradient1806"><stop
         style="stop-color:#2c593f;stop-opacity:1;"
         offset="0"
         id="stop1802" /><stop
         style="stop-color:#29456c;stop-opacity:1;"
         offset="0.50304878"
         id="stop1808" /><stop
         style="stop-color:#492f64;stop-opacity:1;"
         offset="1"
         id="stop1804" /></linearGradient><linearGradient
       inkscape:collect="always"
       id="linearGradient983"><stop
         style="stop-color:#ff0016;stop-opacity:1;"
         offset="0"
         id="stop979" /><stop
         style="stop-color:#ffe900;stop-opacity:1;"
         offset="1"
         id="stop981" /></linearGradient><linearGradient
       inkscape:collect="always"
       xlink:href="#linearGradient983"
       id="linearGradient985"
       x1="5.6900549"
       y1="0.17569731"
       x2="4.7578006"
       y2="52.740967"
       gradientUnits="userSpaceOnUse" /><inkscape:path-effect
       effect="fill_between_many"
       method="originald"
       linkedpaths="#g6391-3,0,1"
       id="path-effect6464" /><linearGradient
       inkscape:collect="always"
       xlink:href="#linearGradient983"
       id="linearGradient6860"
       gradientUnits="userSpaceOnUse"
       x1="5.6900549"
       y1="0.17569731"
       x2="4.7578006"
       y2="52.740967" /><linearGradient
       inkscape:collect="always"
       xlink:href="#linearGradient983"
       id="linearGradient7104"
       gradientUnits="userSpaceOnUse"
       x1="5.6900549"
       y1="0.17569731"
       x2="4.7578006"
       y2="52.740967"
       gradientTransform="translate(0,0.06962382)" /><linearGradient
       inkscape:collect="always"
       xlink:href="#linearGradient1806"
       id="linearGradient7403"
       gradientUnits="userSpaceOnUse"
       gradientTransform="matrix(1,0,0,0.60000001,10.583333,10.583334)"
       x1="5.6900549"
       y1="0.17569731"
       x2="4.7578006"
       y2="52.740967" /><linearGradient
       inkscape:collect="always"
       xlink:href="#linearGradient1806"
       id="linearGradient7456"
       gradientUnits="userSpaceOnUse"
       gradientTransform="matrix(1,0,0,0.60000001,10.583333,10.583334)"
       x1="5.6900549"
       y1="0.17569731"
       x2="4.7578006"
       y2="52.740967" /><linearGradient
       inkscape:collect="always"
       xlink:href="#linearGradient1806"
       id="linearGradient7495"
       gradientUnits="userSpaceOnUse"
       gradientTransform="matrix(1,0,0,0.60000001,10.583333,10.583334)"
       x1="5.6900549"
       y1="0.17569731"
       x2="4.7578006"
       y2="52.740967" /><linearGradient
       inkscape:collect="always"
       xlink:href="#linearGradient1806"
       id="linearGradient7534"
       gradientUnits="userSpaceOnUse"
       gradientTransform="matrix(1,0,0,0.60000001,10.583333,10.583334)"
       x1="5.6900549"
       y1="0.17569731"
       x2="4.7578006"
       y2="52.740967" /></defs><g
     inkscape:groupmode="layer"
     id="layer7"
     inkscape:label="Backup"
     style="display:none"><rect
       style="display:inline;fill:url(#linearGradient7104);fill-opacity:1;stroke:#000000;stroke-width:0;stroke-linecap:round;paint-order:fill markers stroke"
       id="rect378-1"
       width="10.583332"
       height="52.916664"
       x="5e-07"
       y="0.06962353"
       inkscape:label="background" /><rect
       style="display:inline;fill:url(#linearGradient7456);fill-opacity:1;stroke:#000000;stroke-width:0;stroke-linecap:round;paint-order:fill markers stroke"
       id="rect378-5-08-7"
       width="10.583332"
       height="31.75"
       x="10.583334"
       y="10.583334" /></g><g
     inkscape:label="deferred"
     inkscape:groupmode="layer"
     id="layer1"
     style="display:inline"><rect
       style="display:inline;fill:none;stroke:#000000;stroke-width:0.0263923;stroke-linecap:round;stroke-dasharray:none;paint-order:fill markers stroke"
       id="rect6166-3-3-3-0-2-9"
       width="10.556941"
       height="10.556941"
       x="21.179863"
       y="21.179863"
       inkscape:label="box" /><ellipse
       style="display:inline;fill:none;stroke:#808080;stroke-width:1.00542;stroke-linecap:butt;stroke-linejoin:bevel;stroke-dasharray:none;paint-order:normal"
       id="path7592"
       cx="26.458336"
       cy="26.458334"
       rx="2.1431251"
       ry="2.1431234" /></g><g
     inkscape:groupmode="layer"
     id="layer8"
     inkscape:label="f- low"
     style="display:inline"><rect
       style="display:inline;fill:none;stroke:#000000;stroke-width:0.0263923;stroke-linecap:round;stroke-dasharray:none;paint-order:fill markers stroke"
       id="rect6166-3-3-3-0-2"
       width="10.556941"
       height="10.556941"
       x="10.596529"
       y="31.763197"
       inkscape:label="box" /><path
       id="rect378-5-08-7-3"
       style="display:inline;fill:url(#linearGradient7495);fill-opacity:1;stroke:#000000;stroke-width:0;stroke-linecap:round;paint-order:fill markers stroke"
       d="M 13.679785 35.057292 C 13.56702 35.057292 13.45447 35.100756 13.36921 35.187516 C 13.197314 35.362428 13.168518 35.680963 13.36921 35.820553 L 15.569592 37.351208 C 15.770284 37.490798 16.01988 37.52612 16.191777 37.351208 L 18.392159 35.820553 C 18.564055 35.645641 18.564055 35.362428 18.392159 35.187516 C 18.220262 35.012604 17.975002 35.055438 17.769458 35.187516 L 15.880168 36.401396 L 13.990877 35.18855 C 13.905067 35.101095 13.792383 35.057292 13.679785 35.057292 z M 13.679785 36.613786 C 13.567021 36.613786 13.45447 36.657262 13.36921 36.74401 C 13.197314 36.918922 13.168518 37.237974 13.36921 37.377563 L 15.569592 38.907703 C 15.770284 39.047291 16.01988 39.082612 16.191777 38.907703 L 18.392159 37.377563 C 18.564055 37.202653 18.564055 36.918922 18.392159 36.74401 C 18.220262 36.5691 17.975002 36.611934 17.769458 36.74401 L 15.880168 37.958407 L 13.990877 36.745044 C 13.905067 36.65759 13.792384 36.613786 13.679785 36.613786 z " /></g><g
     inkscape:groupmode="layer"
     id="layer9"
     inkscape:label="f-med"
     style="display:inline"><rect
       style="display:inline;fill:none;stroke:#000000;stroke-width:0.0263923;stroke-linecap:round;stroke-dasharray:none;paint-order:fill markers stroke"
       id="rect6166-3-3-3-0-9"
       width="10.556941"
       height="10.556941"
       x="10.596529"
       y="21.179863"
       inkscape:label="box" /><path
       id="rect378-5-08-7-3-0"
       style="display:inline;fill:url(#linearGradient7534);fill-opacity:1;stroke:#000000;stroke-width:0;stroke-linecap:round;paint-order:fill markers stroke"
       d="M 13.750582 25.071338 C 13.525559 25.071338 13.343372 25.318189 13.343372 25.608256 C 13.343372 25.898322 13.525559 26.161194 13.750582 26.161194 L 18.227828 26.161194 C 18.452851 26.161194 18.635038 25.913697 18.635038 25.608256 C 18.635038 25.302812 18.452851 25.071338 18.227828 25.071338 L 13.750582 25.071338 z M 13.750582 26.626799 C 13.525559 26.626799 13.343372 26.874169 13.343372 27.164233 C 13.343372 27.454299 13.525559 27.717171 13.750582 27.717171 L 18.227828 27.717171 C 18.452851 27.717171 18.635038 27.469675 18.635038 27.164233 C 18.635038 26.858795 18.452978 26.626799 18.227828 26.626799 L 13.750582 26.626799 z " /></g><g
     inkscape:groupmode="layer"
     id="layer10"
     inkscape:label="f-high"
     style="display:inline"><rect
       style="display:inline;fill:none;stroke:#000000;stroke-width:0.0263923;stroke-linecap:round;stroke-dasharray:none;paint-order:fill markers stroke"
       id="rect6166-3-3-3-0-0"
       width="10.556941"
       height="10.556941"
       x="10.596529"
       y="10.596529"
       inkscape:label="box" /><path
       id="rect378-5-08"
       style="display:inline;fill:url(#linearGradient7403);fill-opacity:1;stroke:#000000;stroke-width:0;stroke-linecap:round;paint-order:fill markers stroke"
       d="M 15.83831 13.890625 C 15.736609 13.891141 15.6388 13.926975 15.558223 14.008964 L 13.357841 15.539103 C 13.185945 15.714015 13.185945 15.997745 13.357841 16.172656 C 13.529738 16.347568 13.774998 16.304735 13.980542 16.172656 L 15.869832 14.95826 L 17.759123 16.171623 C 17.844933 16.259073 17.957616 16.302881 18.070215 16.302881 C 18.182979 16.302881 18.29553 16.259421 18.38079 16.172656 C 18.552686 15.997745 18.581482 15.678695 18.38079 15.539103 L 16.180408 14.008964 C 16.07379 13.934806 15.95357 13.89004 15.83831 13.890625 z M 15.83831 15.447119 C 15.736609 15.447635 15.6388 15.483469 15.558223 15.565458 L 13.357841 17.096114 C 13.185945 17.271026 13.185945 17.554241 13.357841 17.72915 C 13.529738 17.904062 13.774998 17.861229 13.980542 17.72915 L 15.869832 16.515271 L 17.759123 17.728117 C 17.844933 17.815567 17.957617 17.859375 18.070215 17.859375 C 18.18298 17.859375 18.29553 17.815905 18.38079 17.72915 C 18.552686 17.554241 18.581482 17.235704 18.38079 17.096114 L 16.180408 15.565458 C 16.07379 15.491301 15.95357 15.446534 15.83831 15.447119 z " /></g><g
     inkscape:groupmode="layer"
     id="layer6"
     inkscape:label="i- low"><rect
       style="display:inline;fill:none;stroke:#000000;stroke-width:0.0263923;stroke-linecap:round;stroke-dasharray:none;paint-order:fill markers stroke"
       id="rect6166-3-3-3-0"
       width="10.556941"
       height="10.556941"
       x="0.01319615"
       y="42.346531"
       inkscape:label="box" /><path
       id="rect378"
       style="display:inline;fill:url(#linearGradient985);fill-opacity:1;stroke:#000000;stroke-width:0;stroke-linecap:round;paint-order:fill markers stroke"
       inkscape:label="background"
       d="M 5.2549764 46.302083 C 5.1532757 46.302649 5.0554667 46.341853 4.9748901 46.431791 L 2.7745076 48.110758 C 2.6026118 48.302626 2.6026118 48.613423 2.7745076 48.80529 C 2.9464045 48.997158 3.1916648 48.950172 3.3972087 48.80529 L 5.286499 47.473071 L 7.1757894 48.804256 C 7.2615994 48.900197 7.374283 48.947917 7.4868815 48.947917 C 7.5996457 48.947917 7.712197 48.90046 7.7974569 48.80529 C 7.9693527 48.613423 7.9981485 48.26388 7.7974569 48.110758 L 5.5970744 46.431791 C 5.490457 46.350445 5.3702372 46.301442 5.2549764 46.302083 z " /></g><g
     inkscape:groupmode="layer"
     id="layer3"
     inkscape:label="i- high"><rect
       style="fill:none;stroke:#000000;stroke-width:0.0263923;stroke-linecap:round;stroke-dasharray:none;paint-order:fill markers stroke"
       id="rect6166-3-3-3"
       width="10.556941"
       height="10.556941"
       x="0.01319615"
       y="31.763197"
       inkscape:label="box" /><path
       id="rect6819"
       style="display:inline;fill:url(#linearGradient985);fill-opacity:1;stroke:#000000;stroke-width:0;stroke-linecap:round;paint-order:fill markers stroke"
       inkscape:label="background"
       d="M 5.2549764 35.057292 C 5.1532757 35.057808 5.0554668 35.093641 4.9748901 35.175631 L 2.7745076 36.70577 C 2.6026118 36.880682 2.6026118 37.164412 2.7745076 37.339323 C 2.9464046 37.514236 3.1916648 37.471402 3.3972087 37.339323 L 5.286499 36.124927 L 7.1757894 37.338289 C 7.2615995 37.425743 7.374283 37.469548 7.4868815 37.469548 C 7.5996457 37.469548 7.712197 37.426083 7.7974569 37.339323 C 7.9693527 37.164412 7.9981485 36.845361 7.7974569 36.70577 L 5.5970744 35.175631 C 5.490457 35.101474 5.3702371 35.056707 5.2549764 35.057292 z M 5.2549764 36.613786 C 5.1532757 36.614302 5.0554668 36.650135 4.9748901 36.732125 L 2.7745076 38.262781 C 2.6026118 38.437693 2.6026118 38.720906 2.7745076 38.895817 C 2.9464048 39.07073 3.1916648 39.027896 3.3972087 38.895817 L 5.286499 37.681938 L 7.1757894 38.894784 C 7.2615995 38.982238 7.3742831 39.026042 7.4868815 39.026042 C 7.5996458 39.026042 7.712197 38.982577 7.7974569 38.895817 C 7.9693526 38.720906 7.9981484 38.402371 7.7974569 38.262781 L 5.5970744 36.732125 C 5.490457 36.657968 5.3702372 36.613201 5.2549764 36.613786 z " /></g><g
     inkscape:groupmode="layer"
     id="layer5"
     inkscape:label="i- urgent"><rect
       style="fill:none;stroke:#000000;stroke-width:0.0263923;stroke-linecap:round;stroke-dasharray:none;paint-order:fill markers stroke"
       id="rect6166-3-3"
       width="10.556941"
       height="10.556941"
       x="0.01319616"
       y="21.179861"
       inkscape:label="box" /><path
       id="rect6821"
       style="display:inline;fill:url(#linearGradient985);fill-opacity:1;stroke:#000000;stroke-width:0;stroke-linecap:round;paint-order:fill markers stroke"
       inkscape:label="background"
       d="M 5.2224202 23.813017 C 5.1285084 23.818214 5.0388821 23.856676 4.9640381 23.937557 L 2.7739909 25.555029 C 2.6029197 25.7399 2.6029197 26.039366 2.7739909 26.224239 C 2.945063 26.409111 3.1890334 26.363839 3.3935913 26.224239 L 5.2740967 24.941113 L 7.1540853 26.223206 C 7.2394837 26.315638 7.3515688 26.361698 7.4636271 26.361698 C 7.5758506 26.361698 7.6878013 26.315929 7.7726522 26.224239 C 7.9437233 26.039366 7.972381 25.702568 7.7726522 25.555029 L 5.5831217 23.937557 C 5.4707743 23.854566 5.343164 23.806334 5.2224202 23.813017 z M 5.2880493 25.183993 C 5.1795796 25.179326 5.0748956 25.216097 4.9893595 25.308533 L 2.7993123 26.926005 C 2.6282411 27.110877 2.6282411 27.410343 2.7993123 27.595215 C 2.9703845 27.780087 3.214355 27.734815 3.4189128 27.595215 L 5.2994181 26.312089 L 7.1794067 27.594181 C 7.2648052 27.686616 7.3768903 27.733191 7.4889486 27.733191 C 7.6011719 27.733191 7.7136395 27.686915 7.7984904 27.595215 C 7.9695616 27.410343 7.9982192 27.073545 7.7984904 26.926005 L 5.6084432 25.308533 C 5.5085788 25.234763 5.396519 25.188659 5.2880493 25.183993 z M 5.2880493 26.554968 C 5.1795796 26.550302 5.0748956 26.58759 4.9893595 26.680025 L 2.7993123 28.297498 C 2.6282412 28.482369 2.6282412 28.781836 2.7993123 28.966707 C 2.9703845 29.15158 3.214355 29.106307 3.4189128 28.966707 L 5.2994181 27.683582 L 7.1794067 28.965674 C 7.2648052 29.058108 7.3768902 29.104167 7.4889486 29.104167 C 7.6011718 29.104167 7.7136395 29.058407 7.7984904 28.966707 C 7.9695616 28.781836 7.9982192 28.445037 7.7984904 28.297498 L 5.6084432 26.680025 C 5.5085788 26.606256 5.396519 26.559635 5.2880493 26.554968 z " /></g><g
     inkscape:groupmode="layer"
     id="layer2"
     inkscape:label="i- critical"><rect
       style="fill:none;stroke:#000000;stroke-width:0.0263923;stroke-linecap:round;stroke-dasharray:none;paint-order:fill markers stroke"
       id="rect6166-3"
       width="10.556941"
       height="10.556941"
       x="0.01319616"
       y="10.59653"
       inkscape:label="box" /><path
       id="rect6823"
       style="fill:url(#linearGradient6860);fill-opacity:1;stroke:#000000;stroke-width:0;stroke-linecap:round;paint-order:fill markers stroke"
       inkscape:label="background"
       d="M 5.2198364 12.568225 C 5.1260103 12.573499 5.0367468 12.612754 4.961971 12.694832 L 2.7739909 14.336076 C 2.6030759 14.523684 2.6030759 14.827495 2.7739909 15.015104 C 2.9449069 15.202713 3.1881866 15.15677 3.3925578 15.015104 L 5.2715129 13.712858 L 7.1499512 15.014071 C 7.2352717 15.107877 7.3470202 15.154631 7.4589762 15.154631 C 7.5710973 15.154631 7.6832284 15.108154 7.7680013 15.015104 C 7.9389163 14.827495 7.9675478 14.485799 7.7680013 14.336076 L 5.5805379 12.694832 C 5.468293 12.610614 5.34047 12.561444 5.2198364 12.568225 z M 5.2451579 13.910779 C 5.1513318 13.916053 5.0620682 13.954791 4.9872925 14.036869 L 2.7993123 15.67863 C 2.6283973 15.866238 2.6283973 16.17005 2.7993123 16.357658 C 2.9702283 16.545266 3.2135081 16.499324 3.4178792 16.357658 L 5.2968343 15.055412 L 7.1752726 16.356624 C 7.260593 16.450431 7.3723416 16.497184 7.4842977 16.497184 C 7.5964185 16.497184 7.7085498 16.450708 7.7933228 16.357658 C 7.9642378 16.17005 7.9928693 15.828353 7.7933228 15.67863 L 5.6058594 14.036869 C 5.4936145 13.95265 5.3657914 13.903997 5.2451579 13.910779 z M 5.2451579 15.253333 C 5.1513318 15.258607 5.0620682 15.297345 4.9872925 15.379423 L 2.7993123 17.021183 C 2.6283973 17.208792 2.6283973 17.512603 2.7993123 17.700212 C 2.9702283 17.887819 3.2135081 17.841877 3.4178792 17.700212 L 5.2968343 16.397965 L 7.1752726 17.699178 C 7.260593 17.792984 7.3723416 17.839738 7.4842977 17.839738 C 7.5964185 17.839738 7.7085498 17.793261 7.7933228 17.700212 C 7.9642378 17.512603 7.9928693 17.170907 7.7933228 17.021183 L 5.6058594 15.379423 C 5.4936144 15.295204 5.3657915 15.246551 5.2451579 15.253333 z M 5.2906331 16.595369 C 5.1822624 16.590634 5.0774013 16.628173 4.9919434 16.721977 L 2.8039632 18.363737 C 2.6330482 18.551345 2.6330482 18.855157 2.8039632 19.042765 C 2.9748791 19.230374 3.2186758 19.184431 3.4230469 19.042765 L 5.3014852 17.740519 L 7.1799235 19.041732 C 7.2652439 19.135538 7.3775092 19.182292 7.4894653 19.182292 C 7.6015861 19.182292 7.7137175 19.135815 7.7984904 19.042765 C 7.9694054 18.855157 7.9980369 18.513461 7.7984904 18.363737 L 5.6105103 16.721977 C 5.510737 16.647115 5.3990039 16.600105 5.2906331 16.595369 z " /></g><g
     inkscape:groupmode="layer"
     id="layer4"
     inkscape:label="i- emergency"><rect
       style="fill:none;stroke:#000000;stroke-width:0.0263923;stroke-linecap:round;stroke-dasharray:none;paint-order:fill markers stroke"
       id="rect6166"
       width="10.556941"
       height="10.556941"
       x="-3.2490243e-05"
       y="-3.2490243e-05"
       inkscape:label="box" /><path
       id="rect6825"
       style="fill:url(#linearGradient985);stroke:#000000;stroke-width:0;stroke-linecap:round;paint-order:fill markers stroke;fill-opacity:1"
       inkscape:label="background"
       d="M 5.2549764 1.984375 C 5.1532787 1.9848954 5.0554645 2.0206021 4.9748901 2.1032308 L 2.7745076 3.6457723 C 2.6790254 3.7436903 2.6367881 3.8754037 2.6473836 4.0033732 L 2.6499674 8.209318 C 2.6624364 8.3037959 2.703696 8.3950837 2.7745076 8.4677002 C 2.9464 8.6439746 3.191154 8.6008084 3.3966919 8.4677002 L 5.2859823 7.2440023 L 7.1757894 8.4666667 C 7.2615973 8.5548096 7.3742864 8.5989583 7.4868815 8.5989583 C 7.5996425 8.5989583 7.7121998 8.5551304 7.7974569 8.4677002 C 7.8817968 8.3812073 7.9317471 8.2600207 7.9369832 8.1421387 L 7.9343994 3.9935547 C 7.9503006 3.8591386 7.9094266 3.7242621 7.7974569 3.6457723 L 5.5970744 2.1032308 C 5.49046 2.0284956 5.3702338 1.9837853 5.2549764 1.984375 z " /></g></svg>
